# xmcd
#
# Track frame offsets: 
#        183
#        14208
#        31503
#        47478
#        61895
#        90690
#        114815
#        132703
#        147255
#        162645
#        175470
#        193468
#        224673
#        239383
#
# Disc length: 3877 seconds
#
# Revision: 6
# Processed by: cddbd v1.5.2PL0 Copyright (c) Steve Scherf et al.
# Submitted via: ExactAudioCopy v1.0b3
#
DISCID=d40f230e
DTITLE=Mick Abrahams - All Said And Done
DYEAR=1991
DGENRE=Blues
TTITLE0=Road Roller
TTITLE1=Watch Your Step
TTITLE2=Billy The Kid
TTITLE3=Let Me Love You Baby
TTITLE4=Black Night
TTITLE5=All Tore Down
TTITLE6=Redways Of Milton Keynes
TTITLE7=Long Gone
TTITLE8=Rock Me Right
TTITLE9=So Much Trouble
TTITLE10=Dear Jane
TTITLE11=I Wonder Who
TTITLE12=All Said And Done
TTITLE13=Cats Squirrel
EXTD=YEAR: 1991
EXTT0=
EXTT1=
EXTT2=
EXTT3=
EXTT4=
EXTT5=
EXTT6=
EXTT7=
EXTT8=
EXTT9=
EXTT10=
EXTT11=
EXTT12=
EXTT13=
PLAYORDER=
